<?xml version="1.0" encoding="utf-8"?>
<!-- Generator: Adobe Illustrator 16.0.0, SVG Export Plug-In . SVG Version: 6.00 Build 0)  -->
<!DOCTYPE svg PUBLIC "-//W3C//DTD SVG 1.1//EN" "http://www.w3.org/Graphics/SVG/1.1/DTD/svg11.dtd">
<svg version="1.1" id="Layer_1" xmlns="http://www.w3.org/2000/svg" xmlns:xlink="http://www.w3.org/1999/xlink" x="0px" y="0px"
	 width="32.579px" height="8.347px" viewBox="0 0 32.579 8.347" enable-background="new 0 0 32.579 8.347" xml:space="preserve">
<g>
	<g>
		<path d="M0.264,6.944c0.468,0.288,1.151,0.528,1.871,0.528c1.067,0,1.691-0.563,1.691-1.379c0-0.755-0.432-1.187-1.523-1.607
			C0.983,4.018,0.168,3.334,0.168,2.195C0.168,0.936,1.211,0,2.782,0C3.61,0,4.209,0.192,4.569,0.396L4.281,1.247
			C4.018,1.103,3.478,0.863,2.746,0.863c-1.103,0-1.523,0.66-1.523,1.211c0,0.755,0.492,1.127,1.607,1.559
			c1.367,0.528,2.063,1.188,2.063,2.375c0,1.247-0.923,2.327-2.831,2.327C1.283,8.335,0.432,8.107,0,7.819L0.264,6.944z"/>
		<path d="M13.232,4.09c0,2.782-1.691,4.257-3.754,4.257c-2.135,0-3.634-1.655-3.634-4.102C5.844,1.679,7.439,0,9.598,0
			C11.805,0,13.232,1.691,13.232,4.09z M6.959,4.222c0,1.727,0.935,3.274,2.579,3.274c1.655,0,2.59-1.523,2.59-3.358
			c0-1.607-0.839-3.286-2.579-3.286C7.823,0.852,6.959,2.446,6.959,4.222z"/>
		<path d="M14.04,7.604l4.485-6.56V1.007h-4.102V0.132h5.457v0.636l-4.461,6.536V7.34h4.521v0.875h-5.9V7.604z"/>
		<path d="M22.534,5.673l-0.839,2.542h-1.079l2.746-8.083h1.26l2.758,8.083h-1.115l-0.863-2.542H22.534z M25.185,4.857L24.394,2.53
			c-0.18-0.527-0.3-1.007-0.42-1.475H23.95c-0.12,0.48-0.252,0.972-0.408,1.463l-0.791,2.339H25.185z"/>
		<path d="M29.615,0.132v8.083h-1.044V0.132H29.615z"/>
		<path d="M31.151,7.592c0-0.444,0.301-0.756,0.721-0.756s0.707,0.312,0.707,0.756c0,0.432-0.275,0.755-0.72,0.755
			C31.44,8.347,31.151,8.023,31.151,7.592z"/>
	</g>
</g>
</svg>
