<?xml version="1.0" encoding="utf-8"?>
<!-- Generator: Adobe Illustrator 16.0.0, SVG Export Plug-In . SVG Version: 6.00 Build 0)  -->
<!DOCTYPE svg PUBLIC "-//W3C//DTD SVG 1.1//EN" "http://www.w3.org/Graphics/SVG/1.1/DTD/svg11.dtd">
<svg version="1.1" id="Layer_1" xmlns="http://www.w3.org/2000/svg" xmlns:xlink="http://www.w3.org/1999/xlink" x="0px" y="0px"
	 width="67.874px" height="17.396px" viewBox="0 0 67.874 17.396" enable-background="new 0 0 67.874 17.396" xml:space="preserve">
<g>
	<g>
		<path d="M0.55,14.471c0.975,0.6,2.399,1.1,3.899,1.1c2.225,0,3.524-1.174,3.524-2.874c0-1.575-0.9-2.475-3.174-3.349
			C2.049,8.373,0.35,6.948,0.35,4.574C0.35,1.949,2.524,0,5.798,0c1.725,0,2.975,0.4,3.724,0.825l-0.6,1.774
			c-0.55-0.3-1.675-0.8-3.199-0.8c-2.299,0-3.174,1.375-3.174,2.524c0,1.575,1.025,2.35,3.349,3.249
			c2.85,1.1,4.299,2.475,4.299,4.949c0,2.599-1.924,4.849-5.898,4.849c-1.625,0-3.399-0.475-4.299-1.075L0.55,14.471z"/>
		<path d="M27.571,8.523c0,5.798-3.524,8.873-7.823,8.873c-4.449,0-7.573-3.449-7.573-8.548C12.175,3.499,15.499,0,19.998,0
			C24.597,0,27.571,3.524,27.571,8.523z M14.499,8.798c0,3.599,1.95,6.823,5.374,6.823c3.449,0,5.398-3.174,5.398-6.999
			c0-3.349-1.75-6.848-5.374-6.848C16.299,1.774,14.499,5.099,14.499,8.798z"/>
		<path d="M29.25,15.846l9.348-13.671V2.099H30.05V0.275h11.372V1.6l-9.298,13.622v0.075h9.423v1.825H29.25V15.846z"/>
		<path d="M46.949,11.822l-1.75,5.299H42.95l5.724-16.846h2.624l5.749,16.846h-2.325l-1.799-5.299H46.949z M52.473,10.123
			l-1.649-4.849c-0.375-1.1-0.625-2.1-0.875-3.074h-0.05c-0.25,1-0.525,2.024-0.85,3.049l-1.649,4.874H52.473z"/>
		<path d="M61.699,0.275v16.846h-2.175V0.275H61.699z"/>
		<path d="M64.899,15.821c0-0.925,0.625-1.575,1.5-1.575c0.874,0,1.475,0.65,1.475,1.575c0,0.9-0.575,1.575-1.5,1.575
			C65.499,17.396,64.899,16.721,64.899,15.821z"/>
	</g>
</g>
</svg>
